<svg xmlns="http://www.w3.org/2000/svg" width="176" height="42" fill="none" viewBox="0 0 176 42">
    <path fill="#fff" fill-rule="evenodd" d="M50.156 31.792c2.218 0 3.845 1.668 3.845 3.805 0 2.14-1.627 3.807-3.845 3.807-.918 0-1.778-.295-2.396-.856V42h-1.297V31.91h1.297v.738c.618-.56 1.478-.856 2.396-.856zm121.12 0c.919 0 1.779.295 2.396.856v-.737h1.296v7.374h-1.296v-.737c-.617.561-1.477.856-2.396.856-2.217 0-3.846-1.668-3.846-3.807 0-2.137 1.629-3.805 3.846-3.805zm-103.966 0c.92 0 1.78.295 2.397.856v-.737h1.297v7.374h-1.297v-.737c-.618.561-1.477.856-2.397.856-2.216 0-3.845-1.668-3.845-3.807 0-2.137 1.63-3.805 3.845-3.805zm67.673-2.98v10.473h-1.296v-.737c-.618.561-1.478.856-2.397.856-2.217 0-3.845-1.668-3.845-3.807 0-2.137 1.628-3.805 3.845-3.805.92 0 1.779.295 2.397.856v-3.835h1.296zm-20.633 2.98c.919 0 1.778.295 2.396.856v-.737h1.297v7.374h-1.297v-.737c-.618.561-1.477.856-2.396.856-2.217 0-3.844-1.668-3.844-3.807 0-2.137 1.627-3.805 3.844-3.805zm37.242 0c.92 0 1.778.295 2.397.856v-.737h1.296v7.374h-1.296v-.737c-.619.561-1.478.856-2.397.856-2.218 0-3.845-1.668-3.845-3.807 0-2.137 1.627-3.805 3.845-3.805zm-110.583 0c.919 0 1.779.295 2.396.856v-.737h1.297v7.374h-1.297v-.737c-.617.561-1.477.856-2.396.856-2.216 0-3.846-1.668-3.846-3.807 0-2.137 1.63-3.805 3.846-3.805zm116.386.119l2.518 4.97 2.532-4.97h1.462l-3.994 7.492-3.982-7.492h1.464zm-75.167-.12c2.263 0 3.906 1.682 3.906 3.805 0 2.126-1.643 3.807-3.906 3.807-2.275 0-3.919-1.68-3.919-3.807 0-2.123 1.644-3.805 3.92-3.805zm-49.101-3.097c1.342 0 2.548.428 3.468 1.24l-.8 1.017c-.693-.575-1.598-.974-2.668-.974-2.338 0-4.071 1.77-4.071 4.072 0 2.301 1.733 4.071 4.07 4.071 1.07 0 1.976-.398 2.67-.973l.799 1.018c-.92.81-2.126 1.238-3.468 1.238-3.06 0-5.474-2.315-5.474-5.354 0-3.04 2.413-5.355 5.474-5.355zm-13.05 3.097c2.11 0 3.649 1.49 3.679 4.116h-6.12c.134 1.313 1.16 2.302 2.531 2.302.95 0 1.719-.412 2.201-.887l.83.887c-.649.664-1.719 1.194-3.03 1.194-2.231 0-3.875-1.68-3.875-3.807 0-2.136 1.672-3.805 3.784-3.805zM98.6 28.694c1.251 0 2.278.488 3.001 1.343l-.966.943c-.558-.649-1.145-1.003-2.079-1.003-.906 0-1.704.502-1.704 1.373 0 .766.452 1.283 1.582 1.769l.981.414c1.447.62 2.518 1.49 2.518 2.964 0 1.712-1.298 2.906-3.393 2.906-1.554 0-2.85-.737-3.483-1.622l1.04-.886c.513.65 1.388 1.224 2.428 1.224 1.236 0 2.02-.56 2.02-1.473 0-.96-.602-1.462-1.748-1.948l-.98-.413c-1.629-.679-2.337-1.652-2.337-2.965 0-1.593 1.537-2.626 3.12-2.626zm8.38 3.097c1.251 0 2.217.501 2.88 1.167l-.829.885c-.482-.472-1.161-.857-2.051-.857-1.477 0-2.532 1.151-2.532 2.61 0 1.462 1.055 2.613 2.532 2.613.89 0 1.569-.383 2.051-.856l.829.885c-.663.664-1.628 1.165-2.88 1.165-2.231 0-3.874-1.68-3.874-3.807 0-2.123 1.643-3.805 3.874-3.805zm36.459 0c1.704 0 2.91 1.167 2.91 2.996v4.498h-1.296v-4.424c0-1.078-.724-1.874-1.9-1.874-1.07 0-1.794.589-2.051 1.52v4.778h-1.296v-7.374h1.296v.825c.573-.694 1.463-.944 2.337-.944zM9.948 28.815v3.922c.572-.693 1.463-.944 2.338-.944 1.702 0 2.91 1.166 2.91 2.995v4.498h-1.298v-4.424c0-1.078-.723-1.874-1.898-1.874-1.071 0-1.796.589-2.051 1.52v4.778H8.652V28.814h1.297zm-2.5 0v1.296H4.402v9.175H3.031V30.11H0v-1.297h7.448zM138.04 31.91v7.374h-1.297v-7.374h1.297zm28.109 0v7.374h-1.295v-7.374h1.295zm-42.712-.12c1.703 0 2.91 1.167 2.91 2.996v4.498h-1.297v-4.424c0-1.078-.724-1.874-1.9-1.874-1.07 0-1.794.589-2.05 1.52v4.778h-1.297v-7.374h1.297v.825c.573-.694 1.463-.944 2.337-.944zm-32.195-2.977v1.15h-1.568c-.649 0-1.148.294-1.148.928 0 .68.604 1.02 1.133 1.02h1.582v1.149h-2.095v6.224h-1.282v-6.224h-1.312v-1.15h1.268c-.347-.325-.559-.797-.559-1.299 0-1.032.875-1.798 2.2-1.798h1.78zm-17.182 0v10.471h-1.297V28.814h1.297zm-13.52 1.208v1.889h2.126v1.15h-2.125v3.894c0 .752.286 1.18 1.115 1.18h1.01v1.15h-1.146c-1.447 0-2.276-.737-2.276-2.138V33.06h-1.357v-1.15h1.357v-1.888h1.297zm-3.995 1.889v7.374h-1.297v-7.374h1.297zm-6.42 1.075c-1.085 0-1.929.502-2.366 1.196v2.831c.437.694 1.281 1.196 2.367 1.196 1.477 0 2.532-1.15 2.532-2.613 0-1.459-1.055-2.61-2.532-2.61zm101.495 0c-1.476 0-2.532 1.151-2.532 2.61 0 1.463 1.056 2.613 2.532 2.613 1.086 0 1.932-.502 2.368-1.195v-2.832c-.436-.694-1.282-1.196-2.368-1.196zm-110.583 0c-1.476 0-2.532 1.151-2.532 2.61 0 1.463 1.056 2.613 2.532 2.613 1.085 0 1.93-.502 2.367-1.195v-2.832c-.437-.693-1.282-1.196-2.367-1.196zm130.268 0c-1.478 0-2.533 1.151-2.533 2.61 0 1.463 1.055 2.613 2.533 2.613 1.085 0 1.929-.502 2.366-1.195v-2.832c-.437-.694-1.281-1.196-2.366-1.196zm-103.966 0c-1.477 0-2.532 1.151-2.532 2.61 0 1.463 1.055 2.613 2.532 2.613 1.086 0 1.93-.502 2.367-1.195v-2.832c-.437-.693-1.281-1.196-2.367-1.196zm47.04 0c-1.478 0-2.534 1.151-2.534 2.61 0 1.463 1.056 2.613 2.534 2.613 1.085 0 1.93-.502 2.366-1.195v-2.832c-.436-.694-1.281-1.196-2.366-1.196zm16.94 0c-1.478 0-2.533 1.151-2.533 2.61 0 1.463 1.055 2.613 2.533 2.613 1.085 0 1.929-.502 2.367-1.195v-2.832c-.438-.694-1.282-1.196-2.367-1.196zm-49.091 0c-1.538 0-2.578 1.151-2.578 2.61 0 1.462 1.04 2.613 2.578 2.613 1.537 0 2.564-1.15 2.564-2.613 0-1.459-1.027-2.61-2.564-2.61zm-62.227-.028c-1.086 0-2.037.708-2.307 1.843h4.599c-.181-1.21-1.146-1.858-2.293-1.843zm36.544-4.144v1.547h-1.297v-1.547h1.297zm109.604-.001v1.548h-1.295v-1.548h1.295zm-28.109 0v1.548h-1.297v-1.548h1.297zM49.64 1.308c2.327 0 4.176.777 5.651 2.5l-2.27 2.307c-1.054-1.223-1.96-1.75-3.411-1.75-1.364 0-2.67.777-2.67 2.139 0 1.279.907 2.196 2.927 3.03l1.561.694c2.755 1.169 4.629 2.89 4.629 5.643 0 3.333-2.528 5.613-6.418 5.613-3.04-.001-5.514-1.334-6.788-3.364l2.498-2.056c.936 1.25 2.498 2.363 4.26 2.363 1.96 0 3.096-.862 3.096-2.28 0-1.473-.935-2.334-2.925-3.196l-1.589-.666c-3.04-1.306-4.547-3.196-4.547-5.752 0-3.169 2.926-5.225 5.995-5.225zm87.671 5.598c4.272 0 7.476 3.164 7.476 7.289 0 4.124-3.204 7.288-7.476 7.288-4.305 0-7.48-3.164-7.48-7.288 0-4.124 3.175-7.289 7.48-7.289zm-45.896 0c2.313 0 4.185.933 5.517 2.345l-2.166 2.175c-.751-.848-1.85-1.498-3.35-1.498-2.454 0-4.187 1.808-4.187 4.267 0 2.457 1.733 4.266 4.186 4.266 1.502 0 2.6-.65 3.35-1.5l2.167 2.176c-1.332 1.414-3.204 2.345-5.517 2.345-4.272 0-7.447-3.163-7.447-7.287 0-4.124 3.175-7.289 7.447-7.289zm-16.967 0c4.272 0 7.476 3.164 7.476 7.289 0 4.124-3.204 7.288-7.476 7.288-4.303 0-7.48-3.164-7.48-7.288 0-4.124 3.177-7.289 7.48-7.289zM38.213 0v21.483H0V0l9.829 9.617 9.28-9.079 9.277 9.08L38.213 0zm79.139 1.536v6.923c1.011-1.072 2.543-1.553 4.041-1.553 3.582 0 5.865 2.43 5.865 6.074v8.277h-3.177v-8.22c0-1.526-1.158-3.165-3.292-3.165-1.645 0-2.887.848-3.437 2.485v8.9h-3.178V1.536h3.178zM61.85 3.806v3.327h3.607V9.9H61.85v6.413c0 1.44.4 2.09 2.049 2.09h1.558v2.853h-2.37c-2.77 0-4.415-1.61-4.415-4.295V9.901h-2.355V7.133h2.355V3.805h3.178zm107.965 3.101c3.551 0 5.57 2.428 5.57 6.073v8.277h-3.173v-8.22c0-1.526-.894-3.165-2.974-3.165-1.442 0-2.597.848-3.148 2.458.03.227.03.424.03.65v8.277h-3.177v-8.22c0-1.526-.921-3.165-3.002-3.165-1.414 0-2.599.848-3.117 2.402v8.983h-3.177V7.133h3.177v1.326c.981-1.101 2.394-1.552 3.722-1.552 2.023 0 3.554.79 4.506 2.174 1.358-1.751 3.378-2.174 4.763-2.174zm-67.398-5.37v11.98l5.774-6.384h3.755l-6.005 6.694 6.725 7.43h-3.897l-6.352-7.062v7.062h-3.175V1.537h3.175zm48.121-.001v19.72h-3.174V1.537h3.174zM19.108 4.839L9.83 13.918 3.108 7.342v11.203h31.997V7.342l-6.719 6.576-9.278-9.08zm118.203 5.033c-2.486 0-4.216 1.864-4.216 4.323 0 2.457 1.73 4.32 4.216 4.32 2.453 0 4.213-1.863 4.213-4.32 0-2.459-1.76-4.323-4.213-4.323zm-62.863 0c-2.486 0-4.216 1.864-4.216 4.323 0 2.457 1.73 4.32 4.216 4.32 2.453 0 4.213-1.863 4.213-4.32 0-2.459-1.76-4.323-4.213-4.323z" clip-rule="evenodd"/>
</svg>
