<?xml version="1.0" encoding="UTF-8"?>
<svg width="565px" height="206px" viewBox="0 0 565 206" version="1.1" xmlns="http://www.w3.org/2000/svg" xmlns:xlink="http://www.w3.org/1999/xlink">
    <!-- Generator: Sketch 62 (91390) - https://sketch.com -->
    <title>Stockholms stad_logotyp_vit_CMYK_CS4</title>
    <desc>Created with Sketch.</desc>
    <defs>
        <polygon id="path-1" points="0 0.837 564.909 0.837 564.909 206 0 206"></polygon>
    </defs>
    <g id="Stockholms-stad_logotyp_vit_CMYK_CS4" stroke="none" stroke-width="1" fill="none" fill-rule="evenodd">
        <mask id="mask-2" fill="white">
            <use xlink:href="#path-1"></use>
        </mask>
        <g id="Clip-2"></g>
        <path d="M237.183,37.215 L228.936,37.215 L228.936,46.048 L222.825,46.048 L222.825,53.396 L228.936,53.396 L228.936,72.139 C228.936,79.263 233.207,83.534 240.408,83.534 L246.561,83.534 L246.561,75.962 L242.505,75.962 C238.234,75.962 237.183,74.24 237.183,70.417 L237.183,53.396 L246.561,53.396 L246.561,46.048 L237.183,46.048 L237.183,37.215 Z M279.797,120.053 C277.847,116.981 274.023,114.955 269.824,114.955 C263.451,114.955 258.952,119.902 258.952,126.426 C258.952,132.951 263.451,137.898 269.824,137.898 C274.023,137.898 277.847,135.871 279.797,132.799 L279.797,120.053 Z M279.797,107.684 L288.044,107.684 L288.044,145.17 L279.797,145.17 L279.797,142.396 C277.176,144.498 273.724,145.77 269.748,145.77 C258.657,145.77 250.482,137.371 250.482,126.426 C250.482,115.483 258.657,107.084 269.748,107.084 C273.724,107.084 277.176,108.359 279.797,110.461 L279.797,107.684 Z M280.848,64.791 C280.848,58.266 276.273,53.319 269.9,53.319 C263.451,53.319 258.956,58.266 258.956,64.791 C258.956,71.316 263.451,76.262 269.9,76.262 C276.273,76.262 280.848,71.316 280.848,64.791 Z M289.318,64.791 C289.318,75.738 281,84.138 269.9,84.138 C258.728,84.138 250.482,75.738 250.482,64.791 C250.482,53.848 258.728,45.448 269.9,45.448 C281,45.448 289.318,53.848 289.318,64.791 Z M237.183,98.85 L228.936,98.85 L228.936,107.684 L222.825,107.684 L222.825,115.031 L228.936,115.031 L228.936,133.773 C228.936,140.895 233.207,145.17 240.408,145.17 L246.561,145.17 L246.561,137.598 L242.505,137.598 C238.234,137.598 237.183,135.871 237.183,132.049 L237.183,115.031 L246.561,115.031 L246.561,107.684 L237.183,107.684 L237.183,98.85 Z M209.514,123.51 L206.382,122.223 C201.499,120.35 200.933,118.522 200.933,117.311 C200.933,115.318 203.327,113.981 205.64,113.981 C208.188,113.981 209.893,114.875 211.725,116.783 L212.274,117.354 L217.786,112.596 L217.237,112.002 C214.207,108.727 210.56,107.012 205.631,107.012 C199.368,107.012 192.893,110.912 192.893,117.434 C192.893,122.43 196.105,126.244 202.44,128.77 L205.593,129.992 C209.636,131.617 211.143,133.014 211.143,135.143 C211.143,136.809 209.231,138.527 206.036,138.527 C205.892,138.527 205.749,138.521 205.61,138.514 C202.702,138.379 199.338,136.973 197.359,134.678 L196.819,134.049 L190.935,139.139 L191.598,139.742 C196.063,143.799 200.355,145.77 205.631,145.77 C214.544,145.77 219.212,140.168 219.212,134.635 C219.212,129.711 216.038,126.072 209.514,123.51 Z M209.995,56.895 L206.057,55.215 C200.972,53.197 198.481,50.885 198.481,47.791 C198.481,44.495 202.065,42.574 205.5,42.574 C209.016,42.574 211.455,43.655 213.983,46.39 L219.554,41.422 C215.832,37.252 211.354,35.307 205.479,35.307 C197.751,35.307 190.374,40.283 190.374,47.951 C190.374,54.139 194.168,58.709 201.832,61.875 L205.842,63.491 C210.856,65.576 213.523,67.656 213.523,71.223 C213.523,74.169 210.35,76.933 205.412,76.692 C201.06,76.485 196.912,74.013 194.464,71.067 L188.251,76.393 C192.535,80.744 198,84.138 205.479,84.138 C216.317,84.138 221.669,77.22 221.669,70.552 C221.669,63.892 216.942,59.722 209.995,56.895 Z M517.548,45.448 C513.947,45.448 508.701,46.575 505.173,51.222 C502.704,47.546 498.725,45.448 493.482,45.448 C490.03,45.448 486.358,46.648 483.809,49.572 L483.809,46.048 L475.558,46.048 L475.558,83.538 L483.809,83.538 L483.809,59.692 C485.159,55.573 488.232,53.319 491.908,53.319 C497.306,53.319 499.703,57.667 499.703,61.719 L499.703,83.538 L507.95,83.538 L507.95,61.57 C507.95,60.972 507.95,60.443 507.874,59.84 C509.301,55.573 512.302,53.319 516.049,53.319 C521.447,53.319 523.772,57.667 523.772,61.719 L523.772,83.538 L532.015,83.538 L532.015,61.57 C532.015,51.898 526.773,45.448 517.548,45.448 Z M459.246,83.538 L467.493,83.538 L467.493,31.196 L459.246,31.196 L459.246,83.538 Z M323.938,120.053 C321.989,116.981 318.165,114.955 313.97,114.955 C307.597,114.955 303.098,119.902 303.098,126.426 C303.098,132.951 307.597,137.898 313.97,137.898 C318.165,137.898 321.989,135.871 323.938,132.799 L323.938,120.053 Z M323.938,92.831 L332.185,92.831 L332.185,145.17 L323.938,145.17 L323.938,142.396 C321.313,144.498 317.87,145.77 313.893,145.77 C302.799,145.77 294.623,137.371 294.623,126.426 C294.623,115.483 302.799,107.084 313.893,107.084 C317.87,107.084 321.313,108.359 323.938,110.461 L323.938,92.831 Z M555.211,62.01 L552.079,60.723 C547.196,58.849 546.631,57.022 546.631,55.814 C546.631,53.817 549.023,52.48 551.336,52.48 C553.886,52.48 555.595,53.375 557.422,55.286 L557.971,55.852 L563.482,51.1 L562.934,50.5 C559.903,47.226 556.257,45.512 551.328,45.512 C545.064,45.512 538.591,49.411 538.591,55.933 C538.591,60.929 541.803,64.744 548.138,67.269 L551.29,68.492 C555.337,70.117 556.84,71.514 556.84,73.646 C556.84,75.309 554.928,77.026 551.733,77.026 C551.59,77.026 551.454,77.022 551.307,77.014 C548.403,76.883 545.035,75.473 543.056,73.177 L542.516,72.548 L536.632,77.638 L537.295,78.241 C541.76,82.302 546.057,84.273 551.328,84.273 C560.241,84.273 564.909,78.668 564.909,73.135 C564.909,68.209 561.735,64.571 555.211,62.01 Z M165.742,7.244 L6.514,7.244 C6.426,10.832 5.564,52.178 10.906,78.527 C19.891,122.842 45.203,162.904 86.13,197.607 C127.051,162.912 152.363,122.85 161.363,78.527 C166.553,52.955 165.86,12.585 165.742,7.244 Z M172.143,6.93 C172.25,11.587 173.038,53.195 167.642,79.801 C158.333,125.629 132.246,166.956 90.105,202.634 L86.13,206 L82.155,202.634 C40.001,166.948 13.917,125.621 4.626,79.801 C-1.024,51.926 0.066,8.646 0.116,6.818 L0.285,0.837 L172.006,0.837 L172.143,6.93 Z M444.086,64.791 C444.086,58.266 439.512,53.319 433.142,53.319 C426.689,53.319 422.194,58.266 422.194,64.791 C422.194,71.316 426.689,76.262 433.142,76.262 C439.512,76.262 444.086,71.316 444.086,64.791 Z M452.561,64.791 C452.561,75.738 444.238,84.138 433.142,84.138 C421.963,84.138 413.72,75.738 413.72,64.791 C413.72,53.848 421.963,45.448 433.142,45.448 C444.238,45.448 452.561,53.848 452.561,64.791 Z M367.274,46.048 L357.525,46.048 L342.534,62.993 L342.534,31.196 L334.287,31.196 L334.287,83.534 L342.534,83.534 L342.534,64.791 L359.023,83.534 L369.148,83.534 L351.683,63.817 L367.274,46.048 Z M391.811,45.448 C387.916,45.448 383.94,46.723 381.319,49.572 L381.319,31.196 L373.073,31.196 L373.073,83.538 L381.319,83.538 L381.319,59.921 C382.746,55.573 385.967,53.319 390.242,53.319 C395.787,53.319 398.784,57.667 398.784,61.719 L398.784,83.538 L407.035,83.538 L407.035,61.57 C407.035,51.898 401.113,45.448 391.811,45.448 Z M105.975,137.631 L105.975,119.615 C106.087,119.58 97.6,129.268 86.203,129.268 C73.225,129.268 66.379,119.35 66.44,119.364983 L66.44,137.631 C66.44,143.764 62.758,147.119 62.758,147.119 L68.581,153.631 L103.84,153.631 L109.649,147.119 C109.649,147.119 105.975,143.764 105.975,137.631 Z M65.865,41.731 C67.753,41.731 69.296,40.182 69.296,38.282 C69.296,36.383 67.753,34.843 65.865,34.843 C63.963,34.843 62.412,36.383 62.412,38.282 C62.412,40.182 63.963,41.731 65.865,41.731 Z M63.556,126.19 L63.556,114.584 C61.412,109.815 60.574,103.67 60.287,100.074 C60.011,96.478 58.624,63.166 58.624,63.166 C58.624,63.166 45.353,71.573 45.353,84.898 C45.353,90.544 47.573,96.305 52.089,101.652 C57.151,107.658 59.726,111.553 59.726,115.17 C59.726,118.242 57.713,119.943 55.037,120.078 C53.528,120.168 51.576,118.609 51.576,118.609 C51.576,118.609 51.209,120.328 51.68,121.815 C52.6,124.701 54.324,125.43 56.109,125.43 C57.877,125.43 59.021,125.047 59.589,124.477 C59.454,124.971 59.312,126.49 56.364,126.49 C56.208,127.596 57.782,128.781 59.044,128.781 C60.661,128.781 62.967,128.022 63.556,126.19 Z M106.556,41.731 C108.457,41.731 110.004,40.182 110.004,38.282 C110.004,36.383 108.457,34.843 106.556,34.843 C104.657,34.843 103.11,36.383 103.11,38.282 C103.11,40.182 104.657,41.731 106.556,41.731 Z M313.97,84.138 C319.967,84.138 324.838,81.66 328.286,77.912 L322.664,72.139 C320.714,74.393 317.87,76.114 313.97,76.114 C307.597,76.114 303.098,71.316 303.098,64.791 C303.098,58.266 307.597,53.472 313.97,53.472 C317.87,53.472 320.714,55.193 322.664,57.447 L328.286,51.674 C324.838,47.926 319.967,45.448 313.97,45.448 C302.87,45.448 294.623,53.848 294.623,64.791 C294.623,75.738 302.87,84.138 313.97,84.138 Z M118.515,55.764 C118.515,55.764 104.861,53.147 86.205,53.147 C67.542,53.147 53.908,55.764 53.908,55.764 L56.484,60.946 C56.484,60.946 66.553,58.608 86.205,58.608 C105.86,58.608 115.933,60.946 115.933,60.946 L118.515,55.764 Z M86.213,96.241 C85.532,96.241 84.964,96.444 84.477,96.858 C83.647,97.554 81.542,99.373 81.252,99.74 C81.066,99.947 81.01,100.175 81.096,100.36 C81.17,100.529 81.392,100.733 81.999,100.733 L93.228,100.733 C93.652,100.733 93.929,100.614 94.011,100.399 C94.089,100.205 93.99,99.981 93.717,99.728 C93.076,99.133 91.107,97.246 90.786,96.939 L90.786,80.157 C90.786,75.38 91.854,70.501 99.771,70.501 L104.275,70.501 C107.339,70.501 109.002,67.825 109.02,67.8 L109.149,67.585 L108.898,67.585 C108.898,67.585 105.334,67.593 103.682,67.593 C102.956,67.593 102.346,67.593 101.66,67.593 C100.774,67.589 99.759,67.585 98.202,67.585 C92.645,67.585 88.452,72.126 88.452,78.149 L88.452,94.854 C88.452,95.816 88.073,96.241 87.224,96.241 L86.213,96.241 Z M107.818,77.828 C107.818,76.634 105.505,73.173 101.084,73.173 C99.468,73.173 98.275,73.515 97.338,74.245 C96.927,74.553 96.72,74.929 96.811,75.198 C96.862,75.355 97.026,75.54 97.512,75.54 C98.942,75.54 99.818,76.849 99.818,77.79 C99.818,78.819 99.141,79.187 98.556,79.187 C98.064,79.187 97.636,79.461 97.606,79.795 C97.598,79.888 97.606,80.204 98.138,80.31 C99.088,80.495 99.94,80.567 101.071,80.567 C105.298,80.567 107.818,79.174 107.818,77.828 Z M95.042,108.895 C94.602,108.684 93.88,108.338 93.099,107.957 C91.664,107.266 90.039,106.481 89.507,106.24 C89.026,106.008 88.819,105.975 88.315,105.975 L84.048,105.975 C83.538,105.975 83.331,106.008 82.856,106.24 C82.014,106.619 78.509,108.32 77.329,108.895 C76.926,109.084 76.711,109.41 76.783,109.723 C76.831,109.938 77.03,110.16 77.454,110.16 L94.905,110.16 C95.328,110.16 95.532,109.938 95.579,109.723 C95.648,109.41 95.441,109.084 95.042,108.895 Z M92.455,112.774 C92.377,112.524 92.139,112.381 91.825,112.381 L80.588,112.381 C80.258,112.381 80.02,112.524 79.944,112.777 C79.87,113.022 79.986,113.301 80.229,113.465 C80.6,113.727 82.921,115.272 83.413,115.576 C83.846,115.85 84.061,115.889 84.589,115.889 L87.813,115.889 C88.341,115.889 88.573,115.846 89.001,115.576 C89.503,115.264 91.814,113.719 92.177,113.465 C92.419,113.297 92.531,113.018 92.455,112.774 Z M72.86,80.567 C77.074,80.567 79.594,79.174 79.594,77.828 C79.594,76.634 77.281,73.173 72.864,73.173 C71.247,73.173 70.056,73.515 69.116,74.245 C68.703,74.562 68.504,74.924 68.6,75.198 C68.65,75.355 68.814,75.54 69.298,75.54 C70.725,75.54 71.603,76.849 71.603,77.79 C71.603,78.819 70.914,79.187 70.332,79.187 C69.842,79.187 69.42,79.461 69.384,79.795 C69.376,79.888 69.389,80.204 69.92,80.31 C70.881,80.495 71.731,80.567 72.86,80.567 Z M71.771,68.201 C71.758,68.463 72.09,68.67 72.826,68.859 C74.848,69.383 77.705,70.455 79.826,72.582 C82.065,74.827 82.881,77.043 83.175,78.512 C83.331,79.267 83.548,79.63 83.846,79.63 C84.122,79.63 84.361,79.297 84.572,78.613 C85.158,76.731 85.314,73.865 82.691,70.906 C79.944,67.825 75.635,67.589 74.377,67.589 C73.9,67.589 73.388,67.623 72.852,67.699 C72.143,67.783 71.788,67.952 71.771,68.201 Z M86.205,61.452 C100.238,61.452 109.029,62.681 110.601,62.917 C110.485,65.555 109.612,87.067 109.513,93.106 C109.483,95.588 108.808,104.004 108.177,107.164 C106.767,114.137 100.567,125.941 86.205,125.941 C71.857,125.941 65.639,114.137 64.242,107.164 C63.606,104 62.925,95.579 62.897,93.106 C62.811,87.067 61.92,65.555 61.817,62.917 C63.387,62.681 72.181,61.452 86.205,61.452 Z M120.03,36.986 C120.03,37.857 120.143,38.519 120.661,39.109 L120.8,39.257 C121.596,40.148 121.781,40.376 121.781,40.971 C121.781,41.511 121.41,42.355 120.392,42.355 C119.49,42.355 119.283,42.068 118.863,40.933 C118.441,39.78 117.303,38.628 115.708,38.628 C114.144,38.628 112.384,39.996 112.384,41.95 C112.384,44.035 114.079,45.279 115.708,45.279 C116.643,45.279 117.076,45.014 117.381,44.824 C117.58,44.701 117.687,44.643 117.86,44.643 C118.074,44.643 118.224,44.777 118.314,44.883 C118.569,45.192 118.682,45.697 118.574,46.195 C118.31,47.626 115.604,49.838 112.568,49.838 C108.033,49.838 105.286,45.765 105.286,42.823 C103.547,46.959 99.698,47.837 97.043,47.837 C89.879,47.837 88.408,41.473 88.408,39.773 C88.408,38.628 88.779,37.692 89.113,37.526 C89.151,37.514 89.277,37.455 89.524,37.666 L89.797,37.924 C90.664,38.713 92.301,40.182 94.572,40.182 C97.13,40.182 99.793,38.266 99.793,35.045 C99.793,31.631 97.178,29.85 94.598,29.85 C92.449,29.85 91.225,31.024 90.419,31.808 C90.107,32.116 89.778,32.445 89.596,32.445 C89.229,32.445 88.894,32.298 88.684,32.049 C88.507,31.855 88.412,31.606 88.412,31.327 C88.412,31.285 88.421,31.23 88.421,31.175 C88.452,30.942 88.725,30.66 89.043,30.335 C89.756,29.597 90.733,28.588 90.733,26.643 C90.733,24.409 88.927,22.021 86.205,22.008 C83.499,22.021 81.685,24.409 81.685,26.643 C81.685,28.588 82.656,29.597 83.36,30.335 C83.686,30.66 83.97,30.942 83.996,31.175 C84.008,31.23 84.008,31.285 84.008,31.327 C84.008,31.606 83.913,31.855 83.736,32.049 C83.517,32.298 83.179,32.445 82.816,32.445 C82.643,32.445 82.316,32.116 81.999,31.808 C81.179,31.024 79.967,29.85 77.821,29.85 C75.24,29.85 72.622,31.631 72.622,35.045 C72.622,38.266 75.274,40.182 77.834,40.182 C80.115,40.182 81.744,38.713 82.613,37.924 L82.902,37.666 C83.133,37.455 83.261,37.514 83.31,37.526 C83.646,37.692 84.008,38.628 84.008,39.773 C84.008,41.473 82.527,47.837 75.365,47.837 C72.708,47.837 68.857,46.959 67.125,42.823 C67.125,45.765 64.375,49.838 59.85,49.838 C56.812,49.838 54.102,47.626 53.834,46.195 C53.739,45.697 53.834,45.192 54.094,44.883 C54.18,44.777 54.336,44.643 54.539,44.643 C54.716,44.643 54.824,44.701 55.031,44.824 C55.33,45.014 55.771,45.279 56.704,45.279 C58.325,45.279 60.023,44.035 60.023,41.95 C60.023,39.996 58.272,38.628 56.704,38.628 C55.1,38.628 53.974,39.78 53.545,40.933 C53.138,42.068 52.927,42.355 52.023,42.355 C51.009,42.355 50.629,41.511 50.629,40.971 C50.629,40.376 50.819,40.148 51.604,39.257 L51.751,39.109 C52.271,38.519 52.374,37.857 52.374,36.986 C52.374,35.894 51.595,32.771 48.118,32.771 C46.143,32.771 43.376,34.683 43.376,34.683 L52.745,53.442 C52.745,53.442 66.915,50.585 86.205,50.585 C105.501,50.585 119.682,53.442 119.682,53.442 L129.032,34.683 C129.032,34.683 126.276,32.771 124.301,32.771 C120.825,32.771 120.03,35.894 120.03,36.986 Z M120.325,101.649 C115.252,107.658 112.688,111.549 112.688,115.17 C112.688,118.242 114.689,119.943 117.377,120.084 C118.882,120.168 120.84,118.609 120.84,118.609 C120.84,118.609 121.199,120.324 120.73,121.815 C119.827,124.701 118.078,125.43 116.313,125.43 C114.535,125.43 113.393,125.043 112.828,124.473 C112.956,124.967 113.112,126.49 116.046,126.49 C116.202,127.596 114.642,128.781 113.372,128.781 C111.756,128.781 109.447,128.022 108.865,126.19 L108.865,114.584 C111.002,109.815 111.833,103.674 112.114,100.078 C112.399,96.483 113.798,63.17 113.798,63.17 C113.798,63.17 127.059,71.573 127.059,84.893 C127.059,90.548 124.845,96.305 120.325,101.649 L120.325,101.649 Z" id="Fill-1" fill="#FFFFFE" mask="url(#mask-2)"></path>
    </g>
</svg>
